<svg xmlns="http://www.w3.org/2000/svg" width="400" height="250" viewBox="0 0 400 250"><rect width="100%" height="100%" fill="#DDDDDD"/><path fill="#999999" d="m104.915 106.275-1.68 3.17q-.3.53-.64.77-.33.23-.83.23-.53 0-1.14-.38-.61-.39-1.46-.87-.85-.47-1.99-.86t-2.69-.39q-1.4 0-2.45.34t-1.76.94-1.06 1.44q-.35.83-.35 1.83 0 1.28.71 2.13t1.89 1.45q1.17.6 2.67 1.07 1.5.48 3.08 1.02 1.57.53 3.07 1.25 1.5.71 2.68 1.8 1.17 1.08 1.88 2.66.72 1.57.72 3.82 0 2.45-.84 4.59t-2.45 3.73q-1.61 1.58-3.94 2.5-2.32.91-5.32.91-1.73 0-3.4-.34-1.68-.34-3.22-.96-1.53-.63-2.88-1.5-1.35-.88-2.4-1.95l1.97-3.23q.25-.35.65-.58.4-.24.85-.24.63 0 1.35.51.73.51 1.73 1.14 1 .62 2.33 1.14 1.34.51 3.22.51 2.87 0 4.45-1.36 1.57-1.37 1.57-3.92 0-1.42-.71-2.32t-1.89-1.51q-1.17-.62-2.67-1.04-1.5-.43-3.05-.93t-3.05-1.2q-1.5-.69-2.68-1.82-1.17-1.13-1.89-2.81-.71-1.69-.71-4.17 0-1.97.79-3.85.79-1.87 2.29-3.32t3.7-2.33q2.2-.87 5.05-.87 3.2 0 5.9 1t4.6 2.8m5.72 7.1h6.2v25.65h-6.2zm7.05-7.48q0 .8-.32 1.5-.33.7-.87 1.23-.53.52-1.26.84-.72.31-1.55.31-.8 0-1.51-.31-.71-.32-1.24-.84-.52-.53-.84-1.23-.31-.7-.31-1.5 0-.82.31-1.55.32-.72.84-1.25.53-.52 1.24-.83.71-.32 1.51-.32.83 0 1.55.32.73.31 1.26.83.54.53.87 1.25.32.73.32 1.55m10.8 8.6.43 2.03q.77-.78 1.63-1.44.87-.66 1.83-1.12.96-.47 2.06-.73t2.4-.26q2.1 0 3.73.71 1.62.71 2.71 2t1.65 3.08q.56 1.78.56 3.94v16.32h-6.17v-16.32q0-2.36-1.08-3.64-1.07-1.29-3.27-1.29-1.6 0-3 .72-1.4.73-2.65 1.98v18.55h-6.18v-25.65h3.78q1.2 0 1.57 1.12m35.2-1.12h6.2v25.65h-6.2zm7.05-7.48q0 .8-.32 1.5-.33.7-.87 1.23-.53.52-1.26.84-.72.31-1.55.31-.8 0-1.51-.31-.71-.32-1.24-.84-.52-.53-.84-1.23-.31-.7-.31-1.5 0-.82.31-1.55.32-.72.84-1.25.53-.52 1.24-.83.71-.32 1.51-.32.83 0 1.55.32.73.31 1.26.83.54.53.87 1.25.32.73.32 1.55m11.63 33.13h-6.18v-25.65h3.78q1.2 0 1.57 1.12l.4 1.9q.68-.75 1.41-1.37.74-.63 1.58-1.08t1.8-.71 2.11-.26q2.43 0 3.99 1.31t2.34 3.49q.6-1.28 1.5-2.19t1.97-1.49q1.08-.57 2.29-.85 1.21-.27 2.44-.27 2.12 0 3.77.65t2.78 1.9q1.12 1.25 1.71 3.05t.59 4.13v16.32h-6.18v-16.32q0-2.46-1.07-3.69-1.08-1.24-3.15-1.24-.95 0-1.77.32-.81.33-1.42.94t-.96 1.54q-.35.92-.35 2.13v16.32h-6.2v-16.32q0-2.58-1.04-3.76-1.04-1.17-3.04-1.17-1.35 0-2.51.66t-2.16 1.81zm49.25-6.63v-4.32q-2.68.12-4.5.46-1.83.34-2.93.86-1.1.53-1.57 1.23-.48.7-.48 1.52 0 1.63.96 2.33.97.7 2.52.7 1.9 0 3.28-.69 1.39-.69 2.72-2.09m-13.05-13.47-1.1-1.98q4.42-4.05 10.65-4.05 2.25 0 4.02.74 1.78.74 3 2.05 1.23 1.31 1.86 3.14.64 1.82.64 4v16.2h-2.8q-.87 0-1.35-.26-.47-.27-.75-1.07l-.55-1.85q-.97.88-1.9 1.54-.92.66-1.92 1.11t-2.14.69-2.51.24q-1.63 0-3-.44-1.38-.44-2.38-1.31-1-.88-1.55-2.18t-.55-3.02q0-.98.33-1.94.32-.96 1.06-1.84.74-.87 1.91-1.65 1.18-.77 2.89-1.35 1.71-.57 3.99-.93 2.27-.37 5.2-.44v-1.5q0-2.58-1.1-3.81-1.1-1.24-3.18-1.24-1.5 0-2.49.35-.98.35-1.73.79-.75.43-1.37.78-.61.35-1.36.35-.65 0-1.1-.33-.45-.34-.72-.79m34.25 6.65q1.15 0 2-.31.85-.32 1.41-.87t.85-1.32q.29-.78.29-1.7 0-1.9-1.14-3.01-1.14-1.12-3.41-1.12-2.28 0-3.42 1.12-1.13 1.11-1.13 3.01 0 .9.28 1.67.29.78.85 1.34.57.56 1.43.88.86.31 1.99.31m6.97 14.6q0-.75-.45-1.23-.45-.47-1.22-.73-.78-.26-1.82-.39-1.03-.13-2.2-.19-1.16-.06-2.4-.11-1.23-.05-2.41-.2-1.02.57-1.66 1.35t-.64 1.8q0 .68.34 1.26.34.59 1.07 1.02.74.42 1.92.66 1.17.24 2.87.24 1.73 0 2.98-.27 1.25-.26 2.06-.72t1.19-1.1q.37-.64.37-1.39m-1.22-25.93h7.37v2.3q0 1.1-1.32 1.35l-2.3.43q.52 1.32.52 2.9 0 1.9-.76 3.44-.76 1.53-2.11 2.61-1.35 1.07-3.19 1.66t-3.96.59q-.75 0-1.45-.08-.7-.07-1.38-.2-1.2.73-1.2 1.63 0 .77.71 1.14.72.36 1.89.51 1.18.15 2.68.19 1.5.03 3.07.16 1.58.12 3.08.44 1.5.31 2.67.98 1.18.68 1.89 1.84t.71 2.99q0 1.7-.84 3.3-.83 1.6-2.42 2.85t-3.9 2.01q-2.31.77-5.26.77-2.9 0-5.05-.57-2.15-.56-3.58-1.5-1.42-.93-2.12-2.16-.7-1.22-.7-2.55 0-1.8 1.08-3.01 1.09-1.22 2.99-1.94-1.02-.53-1.62-1.4-.6-.88-.6-2.3 0-.58.21-1.19t.62-1.21q.42-.6 1.04-1.14.63-.54 1.48-.96-1.95-1.05-3.07-2.8-1.11-1.75-1.11-4.1 0-1.9.76-3.44.77-1.54 2.13-2.62 1.36-1.09 3.22-1.67 1.87-.57 4.07-.57 1.65 0 3.1.34 1.45.33 2.65.98m16.15 9h11.65q0-1.2-.34-2.26t-1.01-1.86q-.68-.8-1.72-1.26-1.03-.47-2.41-.47-2.67 0-4.21 1.53t-1.96 4.32m15.75 3.73h-15.88q.15 1.97.7 3.41t1.45 2.38q.9.93 2.14 1.4 1.24.46 2.74.46t2.59-.35q1.08-.35 1.89-.78.82-.42 1.43-.77t1.19-.35q.77 0 1.15.57l1.77 2.25q-1.02 1.2-2.3 2.02-1.27.81-2.66 1.3-1.39.48-2.83.69-1.43.2-2.78.2-2.68 0-4.98-.89t-4-2.63-2.67-4.3q-.98-2.56-.98-5.94 0-2.62.85-4.93.85-2.32 2.44-4.03t3.87-2.71q2.29-1 5.17-1 2.42 0 4.47.77 2.05.78 3.53 2.27 1.47 1.48 2.31 3.65.84 2.16.84 4.93 0 1.4-.3 1.89t-1.15.49m11.42-12.48.43 2.03q.77-.78 1.64-1.44.86-.66 1.82-1.12.96-.47 2.06-.73t2.4-.26q2.1 0 3.73.71 1.62.71 2.71 2t1.65 3.08q.56 1.78.56 3.94v16.32h-6.17v-16.32q0-2.36-1.08-3.64-1.07-1.29-3.27-1.29-1.6 0-3 .72-1.4.73-2.65 1.98v18.55h-6.18v-25.65h3.78q1.2 0 1.57 1.12"/></svg>