<svg
	xmlns="http://www.w3.org/2000/svg"
	viewBox="0 0 512 512"
	fill="none"
	class="logo-navbar"
	aria-hidden="true"
>
	<circle style="fill: #886c60" cx="254.644" cy="254.644" r="254.644"></circle>
	<rect x="115.285" y="161.399" style="fill: #646b79" width="279.057" height="273.293"></rect>
	<polygon style="fill: #f1f3f7" points="479.449,149.87 254.644,34.246 29.838,149.87 "></polygon>
	<polygon style="fill: #fcfcfd" points="126.474,126.474 254.644,60.694 382.813,126.474 "></polygon>
	<g>
		<rect x="60.016" y="149.87" style="fill: #dededf" width="389.256" height="22.718"></rect>
		<rect x="60.016" y="423.502" style="fill: #dededf" width="389.256" height="22.718"></rect>
	</g>
	<g>
		<rect x="40.011" y="445.203" style="fill: #bdbdbe" width="429.266" height="22.718"></rect>
		<path style="fill: #bdbdbe" d="M70.188,172.927v13.563c0,9.155,7.46,16.615,16.615,16.615h57.642 c9.155,0,16.615-7.46,16.615-16.615v-13.563H70.188z"></path>
		<path style="fill: #bdbdbe" d="M161.06,423.502v-13.563c0-9.155-7.46-16.615-16.615-16.615H86.803 c-9.155,0-16.615,7.46-16.615,16.615v13.563H161.06z"></path>
	</g>
	<rect x="86.124" y="203.105" style="fill: #dededf" width="59.338" height="190.559"></rect>
	<g>
		<path style="fill: #bdbdbe" d="M209.886,172.927v13.563c0,9.155,7.46,16.615,16.615,16.615h57.981 c9.155,0,16.615-7.46,16.615-16.615v-13.563H209.886z"></path>
		<path style="fill: #bdbdbe" d="M300.758,423.502v-13.563c0-9.155-7.46-16.615-16.615-16.615h-57.981 c-9.155,0-16.615,7.46-16.615,16.615v13.563H300.758z"></path>
	</g>
	<rect x="225.483" y="203.105" style="fill: #dededf" width="59.338" height="190.559"></rect>
	<g>
		<path style="fill: #bdbdbe" d="M349.245,172.927v13.563c0,9.155,7.46,16.615,16.615,16.615h57.981 c9.155,0,16.615-7.46,16.615-16.615v-13.563H349.245z"></path>
		<path style="fill: #bdbdbe" d="M440.117,423.502v-13.563c0-9.155-7.46-16.615-16.615-16.615H365.86 c-9.155,0-16.615,7.46-16.615,16.615v13.563H440.117z"></path>
	</g>
	<rect x="365.181" y="203.105" style="fill: #dededf" width="59.338" height="190.559"></rect>
</svg>
